<svg xmlns="http://www.w3.org/2000/svg" width="516" height="516"><path d="M247 58.428c-35.675 5.108-56.722 29.294-81 53.572l-57 57c-30.452 30.452-58.014 59.614-49.576 106 4.981 27.382 22.647 45.071 41.576 64l45 45c33.638 33.638 67.489 80.114 121 73.715 37.175-4.447 58.857-29.572 84-54.715l56-56c30.763-30.763 57.463-59.349 49.565-106-4.541-26.822-22.116-44.551-40.565-63l-46-46c-34.031-34.031-68.668-81.352-123-73.572z"/><path d="M199 158v1l43 43 16 13.793L274 202l43-43c-5.234-7.43-12.582-13.582-19-20-6.291-6.291-12.376-13.825-20-18.532-32.576-20.113-58.753 17.285-79 37.532m-41 41c-20.604 20.604-60.476 49.545-35.471 82 10.087 13.092 23.788 24.317 35.471 36h1l43-43 13.793-16L202 242l-44-43m199 0l-43 43-13.793 16L314 274l43 43h1c20.247-20.247 57.645-46.424 37.532-79-4.707-7.624-12.241-13.709-18.532-20-6.418-6.418-12.57-13.766-20-19M199 357v1c20.604 20.604 49.545 60.476 82 35.471 13.092-10.087 24.317-23.788 36-35.471l-43-44-16-13.793L242 314l-43 43z" fill="#fff"/></svg>